<?xml version="1.0" encoding="utf-8"?>
<!-- Generator: Adobe Illustrator 27.0.0, SVG Export Plug-In . SVG Version: 6.00 Build 0)  -->
<svg version="1.1" id="Layer_1" xmlns="http://www.w3.org/2000/svg" xmlns:xlink="http://www.w3.org/1999/xlink" x="0px" y="0px"
	 viewBox="0 0 221.74 121.68" style="enable-background:new 0 0 221.74 121.68;" xml:space="preserve">
<style type="text/css">
	.st0{fill:#FFFFFF;}
</style>
<g>
	<path class="st0" d="M11.3,91.88c-7.4,0-11.3-3.9-11.3-11.3V25.37h57.68v55.21c0,7.41-3.9,11.3-11.3,11.3H11.3z M40.53,77.33V39.92
		H17.15v37.41H40.53z"/>
	<path class="st0" d="M88.41,0.56c0.43,0,0.86,0.13,1.3,0.39l0.39,0.39c0,0.09,0.04,0.17,0.13,0.26c0,0.09,0.02,0.15,0.07,0.19
		c0.04,0.04,0.06,0.11,0.06,0.19c0,0.09,0.04,0.17,0.13,0.26v44.97h13.9c0.09,0,0.17,0.04,0.26,0.13c0.26,0,0.47,0.13,0.65,0.39
		c0.09,0,0.13,0.02,0.13,0.07c0,0.04,0.04,0.06,0.13,0.06c0.08,0.17,0.17,0.32,0.26,0.45c0.09,0.13,0.13,0.28,0.13,0.45
		c0,0.09,0.04,0.17,0.13,0.26v8.57c0,0.43-0.13,0.78-0.39,1.04c-0.26,0.35-0.61,0.61-1.04,0.78H90.49v56.74
		c0,0.09-0.09,0.39-0.26,0.91c-0.09,0-0.13,0.04-0.13,0.13c-0.52,0.52-1,0.82-1.43,0.91H75.03c-0.09,0-0.17-0.04-0.26-0.13
		c-0.09,0-0.15-0.02-0.19-0.06c-0.04-0.04-0.11-0.06-0.2-0.06l-0.26-0.26c-0.17,0-0.26-0.09-0.26-0.26
		c-0.17-0.17-0.26-0.3-0.26-0.39c-0.09-0.09-0.13-0.35-0.13-0.78V2.51c0-0.43,0.04-0.69,0.13-0.78c0-0.17,0.08-0.34,0.26-0.52
		c0.17-0.34,0.56-0.56,1.17-0.65H88.41z"/>
	<path class="st0" d="M154.37,73.7c-17.67,0-31.18-9.48-31.18-29.62c0-18.06,13.51-29.62,31.18-29.62
		c17.28,0,31.18,11.69,31.18,29.62C185.55,62.27,171.78,73.7,154.37,73.7z M154.37,28.62c-8.05,0-14.55,5.72-14.55,15.46
		s6.5,15.46,14.55,15.46c8.06,0,14.55-5.59,14.55-15.46C168.92,34.6,162.17,28.62,154.37,28.62z M196.98,0h17.15v85.44h-17.15V0z"/>
	<path class="st0" d="M218.23,121.58c-4.16-0.26-8.16-0.89-12.02-1.88c-3.85-1-7.38-2.23-10.59-3.7c-1.82-0.87-3.55-1.88-5.2-3.05
		c-1.65-1.17-3.12-2.4-4.42-3.7c-1.3-1.3-2.43-2.58-3.38-3.83c-0.95-1.26-1.69-2.4-2.21-3.44c-0.52,1.04-1.28,2.19-2.27,3.44
		c-1,1.25-2.14,2.53-3.44,3.83c-1.3,1.3-2.75,2.53-4.35,3.7c-1.6,1.17-3.31,2.19-5.13,3.05c-3.12,1.47-6.56,2.7-10.33,3.7
		c-3.77,0.99-7.6,1.62-11.5,1.88c-0.95,0.17-1.78,0.11-2.47-0.19c-0.69-0.3-1.04-0.93-1.04-1.88v-5.98c0-1.21,0.2-2.19,0.59-2.92
		c0.39-0.74,1.23-1.19,2.53-1.36c3.64-0.52,7.08-1.47,10.33-2.86c3.25-1.39,6.13-3.21,8.64-5.46c2.86-2.6,5.2-5.56,7.01-8.9
		c1.82-3.33,2.73-7.25,2.73-11.76v-2.73c0-0.43,0.24-0.87,0.72-1.3c0.47-0.43,0.97-0.65,1.49-0.65h13.9c0.52,0,0.99,0.22,1.43,0.65
		c0.43,0.43,0.65,0.87,0.65,1.3v2.99c0,4.42,0.82,8.29,2.47,11.63c1.64,3.34,3.9,6.3,6.75,8.9c5.11,4.59,11.56,7.36,19.36,8.31
		c1.47,0.17,2.38,0.6,2.73,1.3c0.34,0.69,0.52,1.64,0.52,2.86v5.98c0,0.95-0.35,1.56-1.04,1.82
		C220.01,121.58,219.19,121.67,218.23,121.58z"/>
</g>
</svg>
